<?xml version="1.0" encoding="utf-8"?>
<!-- Generator: Adobe Illustrator 25.0.1, SVG Export Plug-In . SVG Version: 6.00 Build 0)  -->
<svg version="1.1" id="Слой_1" xmlns="http://www.w3.org/2000/svg" xmlns:xlink="http://www.w3.org/1999/xlink" x="0px" y="0px"
	 viewBox="0 0 841.89 595.28" style="enable-background:new 0 0 841.89 595.28;" xml:space="preserve">
<style type="text/css">
	.st0{fill:none;stroke:#FFFFFF;stroke-width:0.25;stroke-miterlimit:10;}
</style>
<g>
	<rect x="-0.8" y="0.56" width="842.93" height="595.12"/>
	<path class="st0" d="M19.68,65.89c172.46,20.5,346.7-3.22,520.32-7.74c94.45-2.46,188.94,0.78,283.36,4.02"/>
	<path class="st0" d="M27.21,148.09c47.5-6.57,95.37,6.52,143.3,7.85c42.11,1.16,84.07-6.78,126.19-5.69
		c29.32,0.76,58.36,5.88,87.62,7.88c69.01,4.71,137.9-7.99,206.99-11.39c76.84-3.78,153.73,3.96,230.27,11.69"/>
	<path class="st0" d="M29.46,244.02c205.39,1.92,410.83-1.94,616.01-11.59c57.23-2.69,114.54-5.84,171.79-3.67"/>
	<path class="st0" d="M31.92,335.48c59.11,3.58,118.26,6.44,177.44,8.58c74.03,2.68,148.2,4.23,222.13-0.49
		c128.77-8.22,256.23-35.44,385.27-35.55"/>
	<path class="st0" d="M33.13,421.73C194,448.2,358.02,455.38,520.58,443.05c89.12-6.76,178.02-19.36,267.38-18.18"/>
	<path class="st0" d="M26.61,553.59c86.78,5.07,173.72,10.15,260.6,7.14c78.89-2.74,157.39-12.13,235.77-21.52
		c52.37-6.27,104.73-12.55,157.1-18.82c40.53-4.85,81.49-9.71,122.05-5.12"/>
	<path class="st0" d="M80.03,17.6c7.16,187.27,13.08,374.59,17.77,561.93"/>
	<path class="st0" d="M185.49,16.98c16.59,186.36,23.5,373.57,20.7,560.65"/>
	<path class="st0" d="M292.88,20.09c10.16,89.84,6.36,180.59,7.85,270.99c0.35,21.15,0.99,42.32,3.16,63.36
		c2.16,20.9,5.83,41.63,7.93,62.54c2.59,25.72,2.81,51.61,3.03,77.46c0.22,26.76,0.45,53.52,0.67,80.28"/>
	<path class="st0" d="M400.57,18.49c6.4,73.68,12.79,147.35,19.19,221.03c1.68,19.32,3.36,38.66,4.06,58.04
		c0.97,26.62,0.1,53.28-0.36,79.91c-1.08,63.02,0.14,126.07,3.65,189"/>
	<path class="st0" d="M753.44,22.69c5.97,35.98,11.95,72.12,12.56,108.58c0.39,22.94-1.36,45.86-2.24,68.79
		c-4.75,122.6,14.9,245.19,9.92,367.79"/>
	<path class="st0" d="M659.21,20.15c3.73,57.72,7.46,115.48,7.96,173.33c0.25,28.47-0.29,57,2.29,85.35
		c1.99,21.94,5.84,43.68,7.66,65.64c3.3,39.85-0.11,80.03,2.93,119.9c2.57,33.71,9.74,67.63,4.4,101.01"/>
	<path class="st0" d="M529.6,18.38c8.64,62.75,16.27,125.64,22.88,188.64c2.78,26.52,5.39,53.3,2.33,79.79
		c-2.07,17.96-6.73,35.58-8.22,53.6c-1.92,23.26,1.5,46.59,4.42,69.74c6.65,52.6,10.85,105.72,7.49,158.63"/>
</g>
</svg>
